<svg xmlns="http://www.w3.org/2000/svg" xmlns:xlink="http://www.w3.org/1999/xlink" id="Layer_1" width="346" height="346" x="0" y="0" enable-background="new 0 0 346 346" version="1.1" xml:space="preserve"><path fill="#010101" fill-rule="evenodd" d="M-1,174c0,95.55,77.45,173,173,173s173-77.45,173-173	S267.55,1,172,1S-1,78.45-1,174z M1,174C1,79.56,77.56,3,172,3c94.439,0,171,76.56,171,171c0,94.439-76.561,171-171,171	C77.56,345,1,268.439,1,174z" clip-rule="evenodd" opacity="0"><animate id="animation1" fill="freeze" attributeName="opacity" begin="animation3.end" dur="0.3s" from="0" to=".03"/><animate id="animation2" fill="freeze" attributeName="opacity" begin="animation1.end" dur="0.3s" from=".03" to="0"/></path><path fill="#010101" fill-rule="evenodd" d="M49,174c0,67.93,55.07,123,123,123	c67.93,0,123-55.07,123-123c0-67.93-55.07-123-123-123C104.07,51,49,106.07,49,174z M51,174c0-66.83,54.17-121,121-121	s121,54.17,121,121s-54.17,121-121,121S51,240.83,51,174z" clip-rule="evenodd" opacity="0"><animate id="animation3" fill="freeze" attributeName="opacity" begin="animation5.end" dur="0.3s" from="0" to=".03"/><animate id="animation4" fill="freeze" attributeName="opacity" begin="animation1.end" dur="0.3s" from=".03" to="0"/></path><g><path fill="#010101" fill-rule="evenodd" d="M74,174c0,54.12,43.88,98,98,98s98-43.88,98-98s-43.88-98-98-98 S74,119.88,74,174z M78,174c0-51.92,42.08-94,94-94s94,42.08,94,94s-42.08,94-94,94S78,225.92,78,174z" clip-rule="evenodd" opacity="0"><animate id="animation5" fill="freeze" attributeName="opacity" begin="animation7.end" dur="0.3s" from="0" to=".04"/><animate id="animation6" fill="freeze" attributeName="opacity" begin="animation1.end" dur="0.3s" from=".04" to="0"/></path></g><circle id="myRect" cx="173" cy="173" r="78" fill-rule="evenodd" clip-rule="evenodd" opacity="0"><animate id="animation7" fill="freeze" attributeName="opacity" begin="1s;animation2.end" dur="0.3s" from="0" to=".05"/><animate id="animation8" fill="freeze" attributeName="opacity" begin="animation1.end" dur="0.3s" from=".05" to="0"/></circle></svg>